<svg id="eHnspdjv01b1" xmlns="http://www.w3.org/2000/svg" xmlns:xlink="http://www.w3.org/1999/xlink" viewBox="0 0 100 100" shape-rendering="geometricPrecision" text-rendering="geometricPrecision"><path d="M63.912109,25.967773c0-.487304-.350585-.90332-.831054-.985351-.063477-.010742-1.214844-.205078-2.833985-.215821c1.151368-3.003906.576172-6.461914.545899-6.634765-.072266-.416016-.398438-.742188-.814453-.814453-.109375-.018555-2.442383-.411133-4.924805.064453-1.286133-3.003906-4.220703-5.102539-4.356445-5.199219-.345704-.244141-.807618-.244141-1.153321,0-.137695.097656-3.101562,2.213867-4.374023,5.242188-2.564453-.547852-5.038086-.135743-5.154297-.115235-.416992.071289-.744141.398438-.81543.81543-.030273.172852-.602539,3.632812.553711,6.638672-1.617187.014648-2.771484.208984-2.834961.219726-.480468.082032-.831054.499024-.831054.986329.003723,7.324706,5.702331,13.33374,12.895141,13.863769l.001343,3.050293c0,.552734.448242,1,1,1c.552734,0,1-.448242,1-1l-.001343-3.04541c3.346314-.229981,6.463623-1.628906,8.857788-4.023926c2.626953-2.625976,4.073243-6.11914,4.071289-9.84668ZM50.982117,37.838501l-.001343-3.163208c2.337219-.297119,4.447815-1.585815,5.780945-3.575684.30664-.458984.18457-1.080078-.274414-1.387695-.458985-.30664-1.079102-.185547-1.387696.274414-.959839,1.432495-2.454101,2.375244-4.119751,2.657837l-.002624-5.862671c1.492309-.277099,2.828186-1.132202,3.691711-2.421142.307617-.458985.18457-1.080078-.274414-1.387696-.458984-.30664-1.080078-.18457-1.387695.274414-.488526.729981-1.211243,1.245362-2.030457,1.48584l-.00177-3.938965c0-.552734-.448242-1-1-1-.552734,0-1,.448243-1,1l.00177,3.963868c-.854553-.229615-1.610046-.758545-2.117004-1.513672-.306641-.459961-.928711-.583008-1.386719-.273438-.458984.307617-.581055.928711-.273437,1.386719.880493,1.312988,2.251342,2.178345,3.778015,2.439209l.002624,5.861572c-1.699829-.266723-3.228698-1.220459-4.206421-2.676757-.30664-.458985-.928711-.583985-1.386718-.273438-.458985.307617-.581055.928711-.273438,1.386719c1.350403,2.013916,3.496155,3.308838,5.867493,3.587646l.001343,3.153321c-5.800049-.49939-10.431031-5.166993-10.861023-10.986084.752929-.071289,1.930664-.136719,3.229492-.03418.397461.033203.754883-.165039.946289-.500977.192383-.335937.172852-.752929-.048828-1.069336-1.325195-1.892578-1.274414-4.726562-1.161133-6.050781.974609-.083008,2.768555-.134765,4.421875.383789.257813.082032.537109.053711.776367-.075195.238281-.129883.413086-.349609.485352-.610352.578125-2.072265,2.40625-3.825195,3.350586-4.620117.93457.785156,2.734375,2.507813,3.334961,4.566406.152343.526368.701172.833008,1.232422.681641c1.58789-.450195,3.28125-.398437,4.21875-.318359.114257,1.325195.168945,4.161132-1.15625,6.052734-.222657.317383-.241211.734375-.047852,1.071289.192383.334961.566406.525391.949219.499024c1.299804-.108399,2.475586-.046875,3.229492.024414-.204102,2.853515-1.412109,5.508789-3.455078,7.550781-2.016541,2.017334-4.631653,3.212402-7.444641,3.43811Z" transform="translate(.000011-4.47153)" fill="#dda15e"/><path d="M28.745117,14.638672c-3.666015-3.667969-16.259765-4.548828-17.683594-4.636719-.283203-.011719-.565429.087891-.768554.291016s-.308594.482422-.291016.768554c.087891,1.423829.96875,14.017579,4.636719,17.683594c1.944336,1.944336,4.499023,2.916992,7.052734,2.916992c2.24115,0,4.481873-.749267,6.310852-2.245849l1.595398,1.595459c.195313.195312.451172.292969.707031.292969s.511719-.097657.707032-.292969c.390625-.390625.390625-1.023438,0-1.414063l-1.595337-1.595337c3.20282-3.91394,2.979675-9.713623-.671265-13.363647ZM16.052734,27.331055c-2.146606-2.146607-3.322265-9.142578-3.814697-13.678955l9.579346,9.579345h-3.314453c-.552735,0-1,.447266-1,1s.447265,1,1,1h5.314453l2.757385,2.757324c-3.126465,2.427247-7.653442,2.210938-10.522034-.657714Zm9.178711-3.513672v-5.314453c0-.552735-.447265-1-1-1s-1,.447265-1,1v3.314453L13.6521,12.238037c4.536316.492432,11.532348,1.668091,13.678955,3.814697c2.869446,2.869385,3.08435,7.396241.657776,10.521973l-2.757386-2.757324Z" transform="translate(.000011-4.47153)" fill="#dda15e"/><path d="M42.883789,51.015625c.552735,0,1-.448242,1-1c0-.552734-.448242-1-1-1l-3.045166.001343c-.229736-3.346802-1.629455-6.463989-4.02417-8.857788-2.625-2.625977-6.115234-4.071289-9.84082-4.071289-.001953,0-.003906,0-.005859,0-.487305,0-.903321.350586-.985352.831054-.010742.063477-.205078,1.215821-.21582,2.833985-3.003907-1.151367-6.460938-.575196-6.634766-.545899-.416016.072266-.742187.398438-.814453.814453-.018555.109375-.411133,2.441407.064453,4.924805-3.003906,1.286133-5.102539,4.220703-5.199219,4.356445-.243164.345704-.243164.807618,0,1.153321.097656.137695,2.213867,3.101562,5.242188,4.374023-.547852,2.567383-.135742,5.038086-.115235,5.154297.071289.416992.398438.744141.81543.81543.171875.02832,3.632813.601562,6.638672-.553711.014648,1.617187.208984,2.771484.219727,2.834961.082031.480469.498046.831054.985351.831054c0,0,0,0,.000977,0c7.324707-.003662,13.33374-5.702392,13.863769-12.895141l3.050293-.001343ZM26.849609,61.878906c-.071289-.753906-.135742-1.929687-.034179-3.229492.030273-.385742-.165039-.754883-.500977-.946289-.154297-.087891-.325195-.131836-.496094-.131836-.201172,0-.402344.060547-.573242.180664-1.892578,1.324219-4.724609,1.273438-6.050781,1.161133-.083984-.974609-.133789-2.768555.383789-4.421875.081055-.257813.053711-.538086-.075195-.776367-.129883-.238282-.34961-.413086-.610352-.485352-2.072266-.578125-3.825195-2.40625-4.620117-3.350586.785156-.93457,2.507812-2.734375,4.566406-3.334961.527344-.15332.832031-.704101.681641-1.232422-.449219-1.586914-.398438-3.28125-.31836-4.21875c1.328125-.11621,4.160157-.167968,6.052735,1.15625.316406.222657.732422.242188,1.071289.047852.335937-.192383.530273-.5625.499023-.949219-.107422-1.300781-.045898-2.475586.024414-3.229492c2.853516.204102,5.508789,1.412109,7.550782,3.455078c2.017028,2.016113,3.212036,4.631714,3.43811,7.44458l-3.163452.001465c-.297058-2.337158-1.585449-4.44751-3.57544-5.781006-.458984-.305664-1.079101-.18457-1.387695.274414-.306641.458985-.18457,1.080078.274414,1.387695c1.4328.959473,2.375549,2.454346,2.657959,4.119751l-5.862854.002564c-.27716-1.492676-1.132141-2.828613-2.421081-3.69165-.458985-.306641-1.080078-.184571-1.387696.274414s-.18457,1.080078.274414,1.387695c.730164.488892,1.245423,1.21167,1.485779,2.030518l-3.938904.001709c-.552734,0-1,.448242-1,1c0,.552734.448243,1,1,1l3.963929-.001709c-.229676.854492-.758667,1.609985-1.513733,2.116943-.458985.307617-.581055.928711-.273438,1.386719.192383.288086.508789.443359.831055.443359.191406,0,.384766-.054687.555664-.169922c1.313049-.880493,2.178345-2.251343,2.439148-3.778076l5.861694-.002563c-.266723,1.699829-1.22052,3.228637-2.676819,4.20642-.458984.307618-.581054.928711-.273437,1.386719.192383.288086.508789.44336.831055.44336.191406,0,.384765-.054688.555664-.169922c2.013916-1.350342,3.308777-3.496094,3.587585-5.867432l3.153443-.001465c-.499451,5.800049-5.167054,10.431153-10.986146,10.861084Z" transform="translate(.000011-4.47153)" fill="#dda15e"/><path d="M31.011719,70.402344c.390625-.390625.390625-1.023438,0-1.414063s-1.023438-.390625-1.414063,0L28.002258,70.58374c-3.913085-3.201416-9.712707-2.979736-13.363586.671143-3.667969,3.666016-4.548828,16.259766-4.636719,17.683594-.017578.286133.087891.565429.291016.768554C10.481445,89.895508,10.735352,90,11,90c.020508,0,.041016-.000977.061523-.001953c1.423829-.087891,14.017579-.96875,17.683594-4.636719c3.65094-3.650024,3.874085-9.449707.671265-13.363647l1.595337-1.595337ZM16.052734,72.668945c1.554688-1.554687,3.59668-2.332031,5.638672-2.332031c1.727661,0,3.451233.5625,4.883362,1.674317l-2.757385,2.757324h-5.314453c-.552735,0-1,.447265-1,1s.447265,1,1,1h3.314453L12.238037,86.3479c.492432-4.536377,1.668091-11.532348,3.814697-13.678955ZM27.331055,83.947266c-2.146607,2.146606-9.14264,3.322265-13.678955,3.814697l9.579345-9.579346v3.314453c0,.552735.447266,1,1,1s1-.447265,1-1v-5.314453l2.757386-2.757324c2.426574,3.125732,2.21167,7.652588-.657776,10.521973Z" transform="translate(.000011-4.47153)" fill="#dda15e"/><path d="M51.016968,60.166504l-.001343-3.050293c0-.552734-.448242-1-1-1-.552734,0-1,.448242-1,1l.001343,3.04541c-3.346314.229981-6.463623,1.628906-8.857788,4.023926-2.626953,2.625976-4.073242,6.11914-4.071289,9.84668c0,.487304.350586.90332.831054.985351.063477.010742,1.214844.205078,2.833985.215821-1.151367,3.003906-.576172,6.461914-.545899,6.634765.072266.416016.398438.742188.814453.814453.109375.018555,2.442383.410156,4.924805-.064453c1.286133,3.003906,4.220703,5.102539,4.356445,5.199219.172852.12207.375.182617.577149.182617s.40332-.060547.576172-.182617c.137695-.097656,3.101562-2.213867,4.374023-5.242188c2.56543.547852,5.038086.136719,5.154297.115235.416992-.071289.744141-.398438.81543-.81543.030273-.172852.602539-3.632812-.553711-6.638672c1.617187-.014648,2.771484-.208984,2.834961-.219726.480468-.082032.831054-.499024.831054-.986329-.003723-7.324707-5.702331-13.33374-12.895141-13.863769ZM58.649414,73.18457c-.396484-.030273-.754883.165039-.946289.500977-.192383.335937-.172852.75293.048828,1.069336c1.325195,1.892578,1.274414,4.726562,1.161133,6.050781-.974609.083984-2.768555.133789-4.421875-.383789-.258789-.083008-.538086-.052734-.776367.075195-.238282.129883-.413086.34961-.485352.610352-.578125,2.072265-2.40625,3.825195-3.350586,4.620117-.93457-.785156-2.734375-2.507812-3.334961-4.566406-.126953-.436524-.526367-.719727-.959961-.719727-.089843,0-.18164.011719-.27246.038086-1.586915.449219-3.28125.398438-4.21875.31836-.114258-1.325196-.168946-4.161133,1.15625-6.052735.222656-.317383.24121-.734375.047851-1.071289-.192383-.335937-.564453-.527344-.949219-.499023-1.301757.107422-2.476562.045898-3.229492-.024414.204102-2.853516,1.41211-5.50879,3.455078-7.550782c2.016541-2.017334,4.631653-3.212402,7.444641-3.43811l.001343,3.163208c-2.337219.297119-4.447815,1.585815-5.780945,3.575684-.30664.458984-.18457,1.080078.274414,1.387695.458008.30664,1.079102.18457,1.387696-.274414.959839-1.432495,2.454162-2.375244,4.119751-2.657837l.002624,5.862671c-1.492309.277099-2.828186,1.132202-3.691711,2.421142-.307617.458985-.18457,1.080078.274414,1.387696.458008.30664,1.080078.18457,1.387695-.274414.488526-.729981,1.211304-1.245362,2.030457-1.485718l.00177,3.938843c0,.552734.448242,1,1,1c.552734,0,1-.448243,1-1l-.00177-3.963868c.854553.229615,1.610046.758545,2.117004,1.513672.192383.288086.508789.44336.831055.44336.191406,0,.384765-.054688.555664-.169922.458984-.307617.581055-.928711.273437-1.386719-.880493-1.312988-2.251342-2.178345-3.778015-2.439209l-.002624-5.861572c1.699829.266601,3.228699,1.220459,4.206421,2.676757.192383.288086.508789.44336.831054.44336.191407,0,.384766-.054688.555665-.169922.458984-.307617.581054-.928711.273437-1.386719-1.350403-2.013916-3.496155-3.308838-5.867493-3.587646l-.001342-3.153321c5.800048.49939,10.43103,5.166993,10.861022,10.986084-.753906.07129-1.929687.136719-3.229492.03418Z" transform="translate(.000011-4.47153)" fill="#dda15e"/><path d="M71.997803,70.58374l-1.595459-1.595459c-.390625-.390625-1.023438-.390625-1.414063,0s-.390625,1.023438,0,1.414063l1.595337,1.595337c-3.20282,3.91394-2.979675,9.713623.671265,13.363647c3.666015,3.667969,16.259765,4.548828,17.683594,4.636719C88.958984,89.999023,88.979492,90,89,90c.264648,0,.518555-.104492.707031-.292969.203125-.203125.308594-.482422.291016-.768554-.087891-1.423829-.96875-14.017579-4.636719-17.683594-3.650024-3.650879-9.449524-3.872559-13.363525-.671143Zm6.309814-.246826c2.042969,0,4.084961.777344,5.639649,2.332031c2.146606,2.146607,3.322265,9.142578,3.814697,13.678955l-9.579346-9.579345h3.314453c.552735,0,1-.447266,1-1s-.447265-1-1-1h-5.314453l-2.757385-2.757324c1.432129-1.111817,3.155579-1.674317,4.882385-1.674317Zm-6.296448,3.088379l2.757386,2.757324v5.314453c0,.552735.447265,1,1,1s1-.447265,1-1v-3.314453L86.3479,87.761963c-4.536315-.492432-11.532348-1.668091-13.678955-3.814697-2.869445-2.869385-3.08435-7.396241-.657776-10.521973Z" transform="translate(.000011-4.47153)" fill="#dda15e"/><path d="M74.032227,63.912109c.487304,0,.90332-.350585.985351-.831054.010742-.063477.205078-1.215821.215821-2.833985c3.003906,1.150391,6.460937.575196,6.634765.545899.416016-.072266.742188-.398438.814453-.814453.018555-.109375.411133-2.441407-.064453-4.924805c3.003906-1.286133,5.102539-4.220703,5.199219-4.356445.243164-.345704.243164-.807618,0-1.153321-.097656-.137695-2.213867-3.101562-5.242188-4.374023.547852-2.567383.135743-5.038086.115235-5.154297-.071289-.416992-.398438-.744141-.81543-.81543-.172851-.029297-3.632812-.601562-6.638672.553711-.014648-1.617187-.208984-2.771484-.219726-2.834961-.082032-.480468-.498047-.831054-.985352-.831054c0,0,0,0-.000977,0-7.324707.003662-13.33374,5.702392-13.863769,12.895141l-3.050293.001343c-.552734,0-1,.448242-1,1c0,.552734.448242,1,1,1l3.045166-.001343c.229736,3.346802,1.629456,6.46399,4.02417,8.857788c2.625,2.625977,6.115234,4.071289,9.84082,4.071289.001953,0,.003906,0,.00586,0Zm-.857422-5.259765c.107422,1.300781.045898,2.475586-.024414,3.229492-2.853516-.204102-5.508789-1.412109-7.550782-3.455078-2.017028-2.016113-3.212036-4.631714-3.43811-7.44458l3.163452-.001465c.297058,2.337158,1.585449,4.44751,3.57544,5.781006.170898.114258.364257.168945.555664.168945.322265,0,.638672-.155273.832031-.443359.306641-.458985.18457-1.080078-.274414-1.387695-1.4328-.959473-2.375549-2.454346-2.657959-4.119751l5.862854-.002564c.27716,1.492676,1.132141,2.828613,2.421081,3.69165.170899.114258.364258.168946.555664.168946.322266,0,.638672-.155274.832032-.44336.307617-.458984.18457-1.080078-.274414-1.387695-.730164-.488892-1.245423-1.21167-1.485779-2.030518l3.938904-.001709c.552734,0,1-.448242,1-1c0-.552734-.448243-1-1-1l-3.963929.001709c.229676-.854492.758667-1.609985,1.513733-2.116943.458985-.307617.581055-.928711.273438-1.386719-.306641-.458984-.929688-.583008-1.386719-.273437-1.313049.880493-2.178345,2.251343-2.439148,3.778076l-5.861633.002563c.266723-1.699829,1.220459-3.228637,2.676758-4.20642.458984-.307618.581054-.928711.273437-1.386719-.307617-.458985-.928711-.583985-1.386719-.273438-2.013916,1.350342-3.308777,3.496094-3.587585,5.867432l-3.153443.001465c.499451-5.800049,5.167054-10.431153,10.986145-10.861084.07129.753906.135743,1.929687.03418,3.229492-.030273.385742.165039.754883.500977.946289s.752929.172852,1.069336-.048828c1.892578-1.325195,4.723632-1.275391,6.050781-1.161133.083984.974609.133789,2.768555-.383789,4.421875-.081055.257813-.053711.538086.075195.776367.129883.238281.349609.413086.610352.485352c2.072265.578125,3.825195,2.40625,4.620117,3.350586-.785156.93457-2.507813,2.734375-4.566406,3.334961-.527344.15332-.832032.704101-.681641,1.232422.449219,1.586914.398438,3.28125.318359,4.21875-1.327148.11621-4.160156.168945-6.052734-1.15625-.316406-.22168-.732422-.241211-1.071289-.047852-.335937.192383-.530273.5625-.499023.949219Z" transform="translate(.000011-4.47153)" fill="#dda15e"/><path d="M88.938477,10.001953c-1.423828.087891-14.017578.96875-17.683594,4.636719-3.65094,3.650024-3.874085,9.449707-.671265,13.363647l-1.595337,1.595337c-.390625.390625-.390625,1.023438,0,1.414063.195313.195312.451172.292969.707032.292969s.511718-.097657.707031-.292969l1.595398-1.595459c1.828979,1.496582,4.069702,2.245849,6.310852,2.245849c2.553711,0,5.108398-.972656,7.052734-2.916992c3.667969-3.666015,4.548828-16.259765,4.636719-17.683594.017578-.286132-.087891-.565429-.291016-.768554s-.482422-.300781-.768554-.291016ZM72.668945,16.052734c2.146607-2.146606,9.14264-3.322265,13.678955-3.814697l-9.579345,9.579346v-3.314453c0-.552735-.447266-1-1-1s-1,.447265-1,1v5.314453l-2.757386,2.757324c-2.426574-3.125732-2.211669-7.652588.657776-10.521973ZM83.947266,27.331055c-2.87024,2.870239-7.397034,3.083618-10.522034.657715l2.757385-2.757325h5.314453c.552735,0,1-.447265,1-1s-.447265-1-1-1h-3.314453L87.761963,13.6521c-.492432,4.536377-1.668091,11.532348-3.814697,13.678955Z" transform="translate(.000011-4.47153)" fill="#dda15e"/><text dx="0" dy="0" font-family="&quot;Helvetica Neue, Helvetica, Arial-Unicode, Arial, sans-serif&quot;" font-size="5" font-weight="700" transform="matrix(.661308 0 0 0.661308 32.3851 88.573)" fill="#dda15e"><tspan y="0" font-weight="700"><![CDATA[
 Created by Made x Made 
]]></tspan></text><text dx="0" dy="0" font-family="&quot;Helvetica Neue, Helvetica, Arial-Unicode, Arial, sans-serif&quot;" font-size="5" font-weight="700" transform="matrix(.661309 0 0 0.661309 34.7379 93.7905)" fill="#dda15e"><tspan y="0" font-weight="700"><![CDATA[
 from the Noun Project 
]]></tspan></text></svg>
